HIERARCHY
ROOT Hips
{
  OFFSET 0.000000 0.000000 0.000000
  CHANNELS 6 Xposition Yposition Zposition Zrotation Yrotation Xrotation
  JOINT Spine
  {
    OFFSET -0.059818 2.086548 0.021003
    CHANNELS 3 Zrotation Yrotation Xrotation
    JOINT Spine1
    {
      OFFSET 0.047353 2.084555 -0.017952
      CHANNELS 3 Zrotation Yrotation Xrotation
      JOINT Spine2
      {
        OFFSET 0.073283 2.082630 -0.028953
        CHANNELS 3 Zrotation Yrotation Xrotation
        JOINT Neck
        {
          OFFSET -0.100379 1.437811 0.030840
          CHANNELS 3 Zrotation Yrotation Xrotation
          JOINT Head
          {
            OFFSET 0.027441 1.456332 -0.073612
            CHANNELS 3 Zrotation Yrotation Xrotation
            End Site
            {
              OFFSET 0 0 0
            }
          }
        }
        JOINT LeftShoulder
        {
          OFFSET 2.750607 0.743894 0.252268
          CHANNELS 3 Zrotation Yrotation Xrotation
          JOINT LeftArm
          {
            OFFSET 4.369010 -0.000000 0.000000
            CHANNELS 3 Zrotation Yrotation Xrotation
            JOINT LeftForeArm
            {
              OFFSET 3.217370 -0.000000 -0.000000
              CHANNELS 3 Zrotation Yrotation Xrotation
              JOINT LeftHand
              {
                OFFSET 0.564313 -0.000000 0.000000
                CHANNELS 3 Zrotation Yrotation Xrotation
                JOINT LeftHandIndex1
                {
                  OFFSET 0.454963 -0.000000 0.000000
                  CHANNELS 3 Zrotation Yrotation Xrotation
                  End Site
                  {
                    OFFSET 0 0 0
                  }
                }
              }
            }
          }
        }
        JOINT RightShoulder
        {
          OFFSET -2.973790 0.790938 0.483767
          CHANNELS 3 Zrotation Yrotation Xrotation
          JOINT RightArm
          {
            OFFSET -4.341180 -0.000000 -0.000000
            CHANNELS 3 Zrotation Yrotation Xrotation
            JOINT RightForeArm
            {
              OFFSET -3.095310 -0.000000 0.000000
              CHANNELS 3 Zrotation Yrotation Xrotation
              JOINT RightHand
              {
                OFFSET -0.597446 -0.000000 0.000000
                CHANNELS 3 Zrotation Yrotation Xrotation
                JOINT RightHandIndex1
                {
                  OFFSET -0.481677 -0.000000 0.000000
                  CHANNELS 3 Zrotation Yrotation Xrotation
                  End Site
                  {
                    OFFSET 0 0 0
                  }
                }
              }
            }
          }
        }
      }
    }
  }
  JOINT LeftUpLeg
  {
    OFFSET 2.243231 -6.163230 0.000000
    CHANNELS 3 Zrotation Yrotation Xrotation
    JOINT LeftLeg
    {
      OFFSET 2.326769 -6.392750 0.000000
      CHANNELS 3 Zrotation Yrotation Xrotation
      JOINT LeftFoot
      {
        OFFSET 0.186861 -0.513396 1.959728
        CHANNELS 3 Zrotation Yrotation Xrotation
        JOINT LeftToeBase
        {
          OFFSET 0.000000 -0.000000 1.020330
          CHANNELS 3 Zrotation Yrotation Xrotation
          End Site
          {
            OFFSET 0 0 0
          }
        }
      }
    }
  }
  JOINT RightUpLeg
  {
    OFFSET -2.199780 -6.043852 0.000000
    CHANNELS 3 Zrotation Yrotation Xrotation
    JOINT RightLeg
    {
      OFFSET -2.293798 -6.302164 0.000000
      CHANNELS 3 Zrotation Yrotation Xrotation
      JOINT RightFoot
      {
        OFFSET -0.246243 -0.676548 1.948545
        CHANNELS 3 Zrotation Yrotation Xrotation
        JOINT RightToeBase
        {
          OFFSET -0.000000 -0.000000 1.032670
          CHANNELS 3 Zrotation Yrotation Xrotation
          End Site
          {
            OFFSET 0 0 0
          }
        }
      }
    }
  }
}
MOTION
Frames: 15
Frame Time: 0.00833333
16.249100 13.056300 -3.117740 17.002800 -36.480200 -332.341000 -18.120800 15.655800 -91.263700 0.000000 0.000000 75.408500 -5.206570 0.000000 2.297430 0.000000 0.000000 -21.277100 24.936000 -18.475500 -92.700900 0.000000 0.000000 94.343100 -16.897600 0.000000 -26.386100 0.000000 0.000000 -17.561500 5.482950 -5.846730 27.238400 0.601306 -5.922880 4.874190 -0.365585 -2.925740 -10.050000 -2.608880 4.795080 -9.995170 -2.806550 3.189480 -0.089980 0.000000 -0.000000 0.000000 72.015000 13.998400 -29.778700 0.000000 0.000000 63.312700 44.990800 0.000000 -27.461100 0.000000 0.000000 7.125020 0.000000 -0.000000 0.000000 -50.156800 10.876400 -38.138700 0.000000 0.000000 43.984600 27.280300 0.000000 -17.112400 0.000000 0.000000 7.125020
15.972300 13.257500 -3.146060 13.292700 -32.725600 -330.792000 -23.907800 17.540800 -93.743200 0.000000 0.000000 77.612700 -6.262380 0.000000 1.930050 0.000000 0.000000 -24.005300 25.059700 -16.304100 -87.763300 0.000000 0.000000 92.711800 -16.058400 0.000000 -25.311100 0.000000 0.000000 -19.628300 1.167300 -5.830670 27.688800 3.683730 -6.722120 4.295590 5.866450 -3.103340 -10.095800 -9.820220 6.756390 -10.269300 -1.193020 5.047450 -0.418543 0.000000 0.000000 0.000000 72.010200 22.104700 -34.428000 0.000000 0.000000 63.447900 46.242000 0.000000 -26.535900 0.000000 0.000000 7.125020 0.000000 0.000000 0.000000 -45.561800 18.930600 -32.796200 0.000000 0.000000 43.858400 25.606800 0.000000 -16.368700 0.000000 0.000000 7.125020
15.667300 13.438700 -3.133340 10.118200 -28.703300 -329.474000 -29.896400 19.293600 -95.861300 0.000000 0.000000 79.080600 -6.461240 0.000000 1.900460 0.000000 0.000000 -24.181600 25.497200 -14.191300 -83.480300 0.000000 0.000000 91.153100 -14.797500 0.000000 -24.275900 0.000000 0.000000 -20.168400 2.883020 -2.866050 25.797500 1.327820 -2.840900 4.831540 0.753374 -1.419330 -9.012580 -1.546460 5.290910 -10.891300 -2.855790 3.496890 0.618433 -0.000000 -0.000000 0.000000 70.519700 12.744000 -30.335800 0.000000 0.000000 61.677000 46.731500 0.000000 -26.368500 0.000000 0.000000 7.125020 -0.000000 -0.000000 0.000000 -46.734600 8.786990 -39.587600 0.000000 0.000000 43.833200 24.848700 0.000000 -12.707700 0.000000 0.000000 7.125020
15.338900 13.664600 -3.081520 7.348130 -24.561800 -328.401000 -35.067100 20.704000 -96.611000 0.000000 0.000000 79.250500 -5.929110 0.000000 1.576960 0.000000 0.000000 -22.761400 26.154500 -11.923200 -79.312100 0.000000 0.000000 89.322600 -13.470000 0.000000 -23.066000 0.000000 0.000000 -20.137900 1.395610 -1.478970 24.400400 1.742840 -1.439700 4.486680 1.570870 -0.718887 -8.610980 -0.383414 5.583010 -10.474900 -3.059210 3.635210 0.684671 -0.000000 0.000000 0.000000 69.671700 12.499500 -31.672400 0.000000 0.000000 61.330700 47.240900 0.000000 -26.877500 0.000000 0.000000 7.125020 -0.000000 0.000000 0.000000 -45.962400 8.434530 -40.217000 0.000000 0.000000 42.659900 27.911800 0.000000 -18.039500 0.000000 0.000000 7.125020
15.083900 13.900400 -2.941070 5.758350 -19.063000 -328.867000 -38.966100 20.680200 -94.406500 0.000000 0.000000 78.223800 -2.828640 0.000000 0.998249 0.000000 0.000000 -17.347100 26.502500 -11.912300 -74.485200 0.000000 0.000000 87.480700 -11.317900 0.000000 -21.177400 0.000000 0.000000 -20.636900 1.468930 -1.173360 24.070100 2.005280 -0.989467 4.191460 1.675980 -0.499122 -8.770590 0.247932 5.970160 -10.016100 -3.123280 3.877310 0.682234 -0.000000 -0.000000 0.000000 69.051600 12.453300 -33.110400 0.000000 0.000000 60.907100 48.113400 0.000000 -27.900000 0.000000 0.000000 7.125020 -0.000000 -0.000000 0.000000 -44.918700 8.030450 -40.250900 0.000000 0.000000 42.812700 25.684800 0.000000 -18.137000 0.000000 0.000000 7.125020
14.827700 14.111600 -2.754790 4.762860 -13.054200 -329.787000 -40.567100 20.563600 -89.922800 0.000000 0.000000 75.654900 -1.367630 0.000000 -1.789390 0.000000 0.000000 -12.762100 26.647800 -12.321300 -69.810200 0.000000 0.000000 85.903700 -9.093160 0.000000 -18.682600 0.000000 0.000000 -20.659600 1.594980 -1.041680 23.534000 2.319420 -0.751057 3.965190 1.867760 -0.379532 -8.742910 0.574629 6.287310 -9.710210 -3.100520 4.090280 0.730237 -0.000000 0.000000 0.000000 68.857500 12.030100 -34.264600 0.000000 0.000000 60.137500 48.434500 0.000000 -27.842500 0.000000 0.000000 7.125020 -0.000000 0.000000 0.000000 -43.814400 8.009370 -39.723700 0.000000 0.000000 42.542900 25.391100 0.000000 -17.505700 0.000000 0.000000 7.125020
14.557800 14.338300 -2.506090 4.078240 -7.395790 -331.532000 -40.030700 21.179600 -83.752500 0.000000 0.000000 72.221800 -2.302160 0.000000 -5.977910 0.000000 0.000000 -9.123600 25.952300 -12.079300 -64.263800 0.000000 0.000000 84.382800 -6.542490 0.000000 -15.876300 0.000000 0.000000 -19.158700 1.205640 -0.656507 23.334200 2.570170 -0.315571 3.934430 2.231190 -0.153861 -8.677150 1.109560 6.551420 -9.563910 -3.226620 4.248160 0.867437 0.000000 -0.000000 0.000000 68.964100 11.135900 -35.212500 0.000000 0.000000 59.211700 48.309900 0.000000 -27.209600 0.000000 0.000000 7.125020 0.000000 -0.000000 0.000000 -42.575500 7.132050 -39.395500 0.000000 0.000000 42.483000 26.703300 0.000000 -14.921600 0.000000 0.000000 7.125020
14.334800 14.494600 -2.236830 4.032420 -1.369230 -332.494000 -39.288300 20.617600 -79.004800 0.000000 0.000000 68.520100 -4.071200 0.000000 -8.854390 0.000000 0.000000 -7.408220 24.694200 -11.699200 -60.533500 0.000000 0.000000 83.538600 -3.190170 0.000000 -12.187500 0.000000 0.000000 -15.895000 1.129410 -0.482514 22.421100 2.610350 -0.100117 3.444690 2.245770 -0.040606 -8.743410 0.817754 6.680950 -10.487700 -2.843390 4.355160 1.511660 -0.000000 0.000000 0.000000 69.025700 10.058600 -36.292700 0.000000 0.000000 58.488500 48.488400 0.000000 -27.192100 0.000000 0.000000 7.125020 -0.000000 0.000000 0.000000 -42.450800 8.017780 -40.060300 0.000000 0.000000 42.281500 26.199500 0.000000 -18.709700 0.000000 0.000000 7.125020
14.112000 14.611000 -1.928790 4.213840 4.860360 -333.675000 -38.281300 19.920200 -74.931200 0.000000 0.000000 65.790500 -6.006810 0.000000 -9.585440 0.000000 0.000000 -4.323450 23.268600 -10.898600 -56.800500 0.000000 0.000000 83.134500 1.017150 0.000000 -8.121270 0.000000 0.000000 -9.042280 0.881046 -0.245560 21.683300 2.625810 0.157044 3.015730 2.325050 0.096887 -8.832470 0.742062 6.861080 -11.537800 -2.557230 4.476570 2.213940 -0.000000 0.000000 0.000000 69.032400 9.061360 -37.382500 0.000000 0.000000 58.406600 48.794300 0.000000 -28.516000 0.000000 0.000000 7.125020 -0.000000 0.000000 0.000000 -42.005500 8.015980 -40.779500 0.000000 0.000000 42.445100 26.181400 0.000000 -18.856200 0.000000 0.000000 7.125020
13.907000 14.685000 -1.595940 4.604000 11.456500 -334.810000 -37.420300 18.775000 -71.484500 0.000000 0.000000 63.895800 -7.499360 0.000000 -9.699240 0.000000 0.000000 -2.131520 22.007600 -10.076300 -53.512700 0.000000 0.000000 83.308800 3.072440 0.000000 -5.421240 0.000000 0.000000 -5.529340 0.724441 -0.025865 20.717500 2.659140 0.405822 2.786290 2.371340 0.225748 -8.575410 0.854721 6.983630 -11.642900 -2.523520 4.557470 2.347500 -0.000000 0.000000 0.000000 69.115700 7.841750 -38.294000 0.000000 0.000000 59.226600 48.017300 0.000000 -28.023500 0.000000 0.000000 7.125020 -0.000000 0.000000 0.000000 -41.285300 7.818890 -41.347200 0.000000 0.000000 42.666300 26.038100 0.000000 -18.001400 0.000000 0.000000 7.125020
13.714300 14.740800 -1.238820 5.146950 18.470000 -335.920000 -36.524400 17.253400 -68.204800 0.000000 0.000000 62.735800 -8.718860 0.000000 -9.489420 0.000000 0.000000 0.438589 21.077600 -9.333250 -50.432400 0.000000 0.000000 83.805700 3.804290 0.000000 -3.629080 0.000000 0.000000 2.949430 0.639912 0.175964 19.678600 2.741690 0.651161 2.595040 2.435520 0.351261 -8.233710 0.904740 7.159590 -11.243200 -2.537760 4.686520 2.279020 0.000000 -0.000000 0.000000 69.249900 6.147110 -39.181800 0.000000 0.000000 60.623100 47.131300 0.000000 -27.302900 0.000000 0.000000 7.125020 0.000000 -0.000000 0.000000 -40.309300 7.312470 -41.890100 0.000000 0.000000 42.307800 25.229900 0.000000 -18.732100 0.000000 0.000000 7.125020
13.540400 14.783300 -0.858914 5.719200 25.802300 -337.115000 -35.113700 15.073000 -64.754000 0.000000 0.000000 61.916400 -9.790240 0.000000 -9.362910 0.000000 0.000000 2.811210 20.354000 -8.588270 -47.378200 0.000000 0.000000 84.462800 -3.878500 0.000000 -3.501420 0.000000 0.000000 -0.657649 0.768133 0.341103 18.722800 2.774350 0.889421 2.413600 2.332020 0.466277 -7.919540 1.006180 7.378970 -10.849400 -2.482740 4.840460 2.339140 -0.000000 0.000000 0.000000 69.239000 4.199450 -39.946300 0.000000 0.000000 62.113300 46.783400 0.000000 -26.607300 0.000000 0.000000 7.125020 -0.000000 0.000000 0.000000 -39.416700 6.575420 -42.502200 0.000000 0.000000 41.621300 24.478100 0.000000 -18.819400 0.000000 0.000000 7.125020
13.377200 14.808200 -0.445680 5.717450 33.274800 -338.868000 -32.444200 12.347100 -61.007900 0.000000 0.000000 61.184400 -10.868100 0.000000 -9.462990 0.000000 0.000000 5.080100 20.127200 -6.894060 -44.172800 0.000000 0.000000 84.913000 -8.872320 0.000000 -4.668070 0.000000 0.000000 -3.560210 1.035300 0.583954 17.923500 3.082730 1.279350 2.387070 2.415400 0.655912 -7.528340 1.372830 7.682250 -10.108200 -2.613750 5.040490 2.367630 0.000000 -0.000000 0.000000 69.312900 2.863300 -40.728000 0.000000 0.000000 63.639200 46.413800 0.000000 -26.308300 0.000000 0.000000 7.125020 0.000000 -0.000000 0.000000 -38.170800 5.829340 -42.789100 0.000000 0.000000 40.445600 25.402800 0.000000 -18.804200 0.000000 0.000000 7.125020
13.260000 14.835500 -0.055145 5.867540 40.516400 -340.539000 -29.787000 8.952140 -57.247100 0.000000 0.000000 60.213600 -11.969000 0.000000 -9.680670 0.000000 0.000000 7.293160 19.305900 -5.003320 -41.281500 0.000000 0.000000 84.920200 -7.811190 0.000000 -6.936370 0.000000 0.000000 -5.334970 1.442980 0.815604 17.460300 3.353400 1.686070 2.276030 2.379530 0.850718 -7.407570 1.430600 8.045960 -9.620580 -2.634640 5.296410 2.595110 0.000000 -0.000000 0.000000 69.324000 1.922340 -41.683100 0.000000 0.000000 65.419700 45.935400 0.000000 -26.188400 0.000000 0.000000 7.125020 0.000000 -0.000000 0.000000 -37.229500 5.837630 -43.041000 0.000000 0.000000 39.574800 25.464300 0.000000 -19.060500 0.000000 0.000000 7.125020
13.161700 14.876600 0.328258 6.085650 47.418900 -341.991000 -27.272700 5.425700 -53.797500 0.000000 0.000000 58.896300 -13.427100 0.000000 -9.656890 0.000000 0.000000 8.467200 18.201700 -3.186180 -38.605400 0.000000 0.000000 84.330000 -6.128500 0.000000 -8.573740 0.000000 0.000000 -5.502190 1.866500 1.187780 17.070900 3.461160 2.265150 2.136560 2.122780 1.125230 -7.352670 1.452770 8.267120 -8.738820 -2.686010 5.467210 2.592940 -0.000000 0.000000 0.000000 69.124800 1.146700 -42.553200 0.000000 0.000000 67.521400 45.515900 0.000000 -25.955800 0.000000 0.000000 7.125020 -0.000000 0.000000 0.000000 -37.239500 6.275890 -43.754300 0.000000 0.000000 39.326400 24.915800 0.000000 -19.507800 0.000000 0.000000 7.125020
